Coordinates
version=1
nRows=12
nColumns=42
inDegrees=yes

Units are S.I. units (second, meters, Newtons, ...)
If the header above contains a line with 'inDegrees', this indicates whether rotational values are in degrees (yes) or radians (no).

endheader
time	pelvis_tilt	pelvis_list	pelvis_rotation	pelvis_tx	pelvis_ty	pelvis_tz	hip_flexion_r	hip_adduction_r	hip_rotation_r	knee_angle_r	knee_adduction_r	knee_angle_r_beta	ankle_angle_r	subtalar_angle_r	mtp_angle_r	hip_flexion_l	hip_adduction_l	hip_rotation_l	knee_angle_l	knee_adduction_l	knee_angle_l_beta	ankle_angle_l	subtalar_angle_l	mtp_angle_l	lumbar_extension	lumbar_bending	lumbar_rotation	arm_flex_r	arm_add_r	arm_rot_r	elbow_flex_r	pro_sup_r	wrist_flex_r	wrist_dev_r	arm_flex_l	arm_add_l	arm_rot_l	elbow_flex_l	pro_sup_l	wrist_flex_l	wrist_dev_l
      0.17000000	     10.60212014	      2.52942434	     -4.60827263	     -1.65673865	      0.97482714	      0.34468754	    -15.44379806	     -3.91506088	    -30.78831518	     23.70806336	    -10.70333196	      0.41378376	     26.52346449	     33.65456534	     -9.52125625	     17.02471549	     -1.66304519	    -12.89118808	     19.65095199	     -3.80761703	      0.34297381	     -1.75358839	      7.66882420	     -9.52125625	    -26.67547788	     -7.28535317	      6.19427030	     28.59758523	    -22.57205052	     32.06058442	     43.49550366	     90.00000001	      0.00000000	      0.00000000	    -16.67369332	    -11.98542004	     -2.86159364	     38.97224254	     90.00000001	      0.00000000	      0.00000000
      0.18000000	     10.41392529	      2.52904128	     -4.58357409	     -1.64733549	      0.97450078	      0.34292053	    -15.70894039	     -4.06828209	    -30.59554131	     23.93007746	    -10.82649943	      0.41765864	     26.31681558	     33.67860276	     -9.51554689	     16.76252103	     -1.57860767	    -13.15972756	     19.70014306	     -3.84475955	      0.34383236	     -2.17136484	      7.69006448	     -9.51554689	    -26.32545067	     -7.29776883	      6.07060894	     28.24003809	    -22.45789180	     32.13830663	     43.47361270	     90.00000001	      0.00000000	      0.00000000	    -16.66971602	    -11.82473526	     -2.79863630	     38.97238413	     90.00000001	      0.00000000	      0.00000000
      0.19000000	     10.18418454	      2.75166357	     -4.69217382	     -1.63796613	      0.97450432	      0.34093534	    -15.81453644	     -4.63988753	    -30.24329043	     24.39808559	    -10.76014978	      0.42582692	     25.35443075	     33.58925253	     -9.49232999	     16.59237632	     -1.24875775	    -14.28330673	     19.65761376	     -4.18051167	      0.34309008	     -3.88161050	      7.86928036	     -9.49232999	    -25.94845193	     -7.56271158	      6.02387161	     27.88316571	    -22.42800228	     32.12704676	     43.58513505	     90.00000001	      0.00000000	      0.00000000	    -16.50896507	    -11.72162779	     -2.69352858	     38.87314106	     90.00000001	      0.00000000	      0.00000000
      0.20000000	      9.96252775	      2.91303741	     -4.63452200	     -1.62860529	      0.97482871	      0.33882341	    -15.91680875	     -5.05117264	    -30.01159881	     24.86427054	    -10.79936747	      0.43396339	     24.51907976	     33.38490345	     -9.46721214	     16.44127059	     -0.96512010	    -14.93156844	     19.71012047	     -4.35421641	      0.34400650	     -4.68944910	      8.12120521	     -9.46721214	    -25.62936369	     -7.73102229	      5.84906109	     27.38902176	    -22.37026635	     32.04672367	     43.68244402	     90.00000001	      0.00000000	      0.00000000	    -16.26583860	    -11.63397968	     -2.59341995	     38.73639015	     90.00000001	      0.00000000	      0.00000000
      0.21000000	      9.79763912	      2.95803010	     -4.42938268	     -1.61929331	      0.97553235	      0.33668295	    -16.10419419	     -5.18563633	    -29.81296726	     25.20702515	    -10.99827985	      0.43994558	     24.23648093	     33.37500589	     -9.46346619	     16.21990533	     -0.78322822	    -15.04957504	     19.82321569	     -4.35824651	      0.34598038	     -4.81306468	      8.16169999	     -9.46346619	    -25.44508599	     -7.75156124	      5.54194963	     26.89784360	    -22.25787339	     32.10421546	     43.62070313	     90.00000001	      0.00000000	      0.00000000	    -16.00422729	    -11.53534634	     -2.54870992	     38.79398486	     90.00000001	      0.00000000	      0.00000000
      0.22000000	      9.58859044	      3.29794929	     -4.31091980	     -1.61000341	      0.97647436	      0.33425878	    -16.02001734	     -5.96101913	    -29.69799093	     26.16954194	    -10.85570444	      0.45674467	     22.80686885	     33.04851805	     -9.45001397	     16.08326603	     -0.17787811	    -15.41566466	     19.96302641	     -4.59686764	      0.34842054	     -5.16406567	      8.30331050	     -9.45001397	    -25.18199392	     -8.09378910	      5.29038522	     26.38025472	    -22.14849103	     32.01384722	     43.64225504	     90.00000001	      0.00000000	      0.00000000	    -15.64026663	    -11.53487667	     -2.47273304	     38.73580935	     90.00000001	      0.00000000	      0.00000000
      0.23000000	      9.36890893	      3.56646634	     -4.16400862	     -1.60083648	      0.97774920	      0.33167058	    -15.82502155	     -6.62401961	    -29.65908603	     27.15592009	    -10.89830882	      0.47396022	     21.21458465	     32.48820927	     -9.43272812	     15.88776997	      0.39243601	    -15.60416400	     20.00381443	     -4.80003697	      0.34913242	     -5.17222019	      8.44113109	     -9.43272812	    -24.99513331	     -8.30827955	      4.94966274	     25.76200043	    -22.03438135	     31.83352624	     43.63100271	     90.00000001	      0.00000000	      0.00000000	    -15.18500449	    -11.49786792	     -2.34152660	     38.67315562	     90.00000001	      0.00000000	      0.00000000
      0.24000000	      9.18212403	      3.79516145	     -3.95212780	     -1.59164771	      0.97934404	      0.32916059	    -15.59759229	     -7.19423261	    -29.55643472	     28.26600403	    -10.95478274	      0.49333484	     19.46952919	     31.66171077	     -9.40938194	     15.58627898	      0.96745858	    -15.52433741	     19.97956846	     -4.98259655	      0.34870925	     -4.88450010	      8.53517726	     -9.40938194	    -24.84374908	     -8.50565724	      4.60916642	     25.06281282	    -21.82698723	     31.55103086	     43.57959753	     90.00000001	      0.00000000	      0.00000000	    -14.67335150	    -11.50706653	     -2.14951557	     38.61499101	     90.00000001	      0.00000000	      0.00000000
      0.25000000	      9.03917869	      3.93765663	     -3.73077103	     -1.58257382	      0.98133451	      0.32660732	    -15.38086036	     -7.60438528	    -28.63166666	     29.53297080	    -10.67957958	      0.51544758	     17.43946796	     29.07858831	     -9.29192882	     15.11434418	      1.48747717	    -15.05439442	     19.82368970	     -5.04204690	      0.34598866	     -4.59417378	      8.18077989	     -9.29192882	    -24.79007894	     -8.59378506	      4.35114132	     24.20144341	    -21.41502289	     30.15351716	     43.41267833	     90.00000001	      0.00000000	      0.00000000	    -14.00144592	    -11.65057518	     -1.37475029	     38.45508189	     90.00000001	      0.00000000	      0.00000000
      0.26000000	      8.92138176	      4.17934626	     -3.55593880	     -1.57347491	      0.98336684	      0.32399170	    -14.89727636	     -8.37477204	    -28.71171088	     31.20683937	    -10.71538253	      0.54466210	     15.44986483	     28.40750271	     -9.27077379	     14.52382914	      2.14571945	    -14.80139369	     19.48059502	     -5.20407540	      0.34000052	     -4.11230644	      8.23721113	     -9.27077379	    -24.75237815	     -8.79893516	      3.97475922	     23.54879112	    -21.21119365	     30.16050514	     43.21869146	     90.00000001	      0.00000000	      0.00000000	    -13.47018254	    -11.68591458	     -1.26074959	     38.66572398	     90.00000001	      0.00000000	      0.00000000
      0.27000000	      8.83402478	      4.27881310	     -3.37664499	     -1.56454966	      0.98573159	      0.32146061	    -14.39053132	     -8.86962626	    -27.74123142	     33.04838365	    -10.32713386	      0.57680311	     12.75020197	     25.20878947	     -9.16051608	     13.74737896	      2.65692085	    -14.22227023	     18.92160814	     -5.23862857	      0.33024436	     -3.85070308	      7.83184125	     -9.16051608	    -24.79353786	     -8.85069700	      3.60852620	     22.89609490	    -20.79105532	     29.58063869	     42.84085721	     90.00000001	      0.00000000	      0.00000000	    -12.88317494	    -11.82285826	     -0.59367153	     38.90573690	     90.00000001	      0.00000000	      0.00000000
      0.28000000	      8.77240397	      4.42024269	     -3.27463655	     -1.55557296	      0.98799988	      0.31896842	    -13.62549996	     -9.62107351	    -27.70332283	     35.21117799	    -10.33432495	      0.61455099	     10.13139360	     23.98090832	     -9.13246454	     12.86937848	      3.19145420	    -14.13297017	     18.18632236	     -5.38809174	      0.31741120	     -3.45748635	      8.13966870	     -9.13246454	    -24.83648593	     -8.96083969	      3.30382929	     22.23469595	    -20.59233598	     29.57958259	     42.59089002	     90.00000001	      0.00000000	      0.00000000	    -12.27041917	    -11.89596273	     -0.45644461	     39.19975885	     90.00000001	      0.00000000	      0.00000000
